<svg width="20" height="20" viewBox="0 0 20 20" fill="none" xmlns="http://www.w3.org/2000/svg">
<mask id="mask0_4636_97819" style="mask-type:alpha" maskUnits="userSpaceOnUse" x="0" y="0" width="20" height="20">
<rect width="20" height="20" fill="#D9D9D9"/>
</mask>
<g mask="url(#mask0_4636_97819)">
<path d="M11.271 18.2216C15.6149 18.1835 19.1049 14.6825 19.0663 10.4018C19.0276 6.12121 15.4748 2.68197 11.1309 2.72007C6.78705 2.75817 3.29697 6.2592 3.33564 10.5398C3.3743 14.8205 6.92707 18.2597 11.271 18.2216Z" fill="#1A8DFF"/>
<path d="M8.9185 16.7026C13.2153 16.6649 16.6675 13.2019 16.6292 8.9677C16.591 4.7335 13.0768 1.33157 8.78 1.36926C4.48322 1.40695 1.03101 4.86999 1.06925 9.10419C1.1075 13.3384 4.62173 16.7403 8.9185 16.7026Z" fill="#A8D4FF"/>
<path d="M4.78906 7.35938L6.79108 12.0907L8.60429 7.35938L10.5494 12.0907L12.3356 7.35938" stroke="#1A8DFF" stroke-width="1.2" stroke-linecap="round" stroke-linejoin="round"/>
<path d="M4.0625 9.39062H13.0536" stroke="#1A8DFF" stroke-width="1.2" stroke-linecap="round" stroke-linejoin="round"/>
</g>
</svg>
