<svg width="24" height="24" viewBox="0 0 24 24" fill="none" xmlns="http://www.w3.org/2000/svg">
<mask id="mask0_1987_17932" style="mask-type:alpha" maskUnits="userSpaceOnUse" x="0" y="0" width="24" height="24">
<rect width="24" height="24" fill="#D9D9D9"/>
</mask>
<g mask="url(#mask0_1987_17932)">
<path d="M17.3924 10.9688V5C17.3924 3.89543 16.497 3 15.3924 3H4C2.89543 3 2 3.89543 2 5V12.5457C2 13.6503 2.89543 14.5457 4 14.5457H11.5" stroke="#999999" stroke-width="1.5"/>
<path d="M5 18.4688H11" stroke="#999999" stroke-width="1.5" stroke-linecap="round" stroke-linejoin="round"/>
<path d="M8.09095 14.5469L6.96875 18.3955" stroke="#999999" stroke-width="1.5" stroke-linecap="round" stroke-linejoin="round"/>
<path d="M11.2969 14.5469L11.6779 15.9688" stroke="#999999" stroke-width="1.5"/>
<path d="M19.7949 14.9117C19.7938 14.5927 19.7552 14.2749 19.6799 13.9649L21.0042 13.0028L20.0137 11.2863L18.5159 11.9511C18.0516 11.5103 17.49 11.1851 16.8766 11.002L16.7039 9.375H14.7226L14.5494 11.002C13.9362 11.1851 13.3747 11.5103 12.9106 11.9511L11.4128 11.2863L10.4219 13.0028L11.7461 13.9649C11.5935 14.5868 11.5935 15.2365 11.7461 15.8584L10.4219 16.8206L11.4128 18.537L12.9106 17.8722C13.3746 18.3132 13.9361 18.6384 14.5494 18.8213L14.7226 20.4483H16.7039L16.8766 18.8213C17.49 18.6382 18.0516 18.313 18.5159 17.8722L20.0137 18.537L21.0042 16.8206L19.6799 15.8584C19.7552 15.5484 19.7938 15.2307 19.7949 14.9117Z" stroke="#999999" stroke-width="1.5" stroke-linejoin="round"/>
<path d="M15.7051 13.7422C16.0163 13.7422 16.315 13.8659 16.5352 14.0859C16.7552 14.306 16.8788 14.6047 16.8789 14.916C16.8789 15.1483 16.8107 15.3762 16.6816 15.5693C16.5526 15.7624 16.3687 15.9121 16.1543 16.001C15.9399 16.0898 15.7042 16.1136 15.4766 16.0684C15.2489 16.0231 15.0392 15.9113 14.875 15.7471C14.7108 15.5828 14.599 15.3733 14.5537 15.1455C14.5084 14.9177 14.5322 14.6814 14.6211 14.4668C14.7099 14.2525 14.86 14.0694 15.0527 13.9404C15.2457 13.8115 15.473 13.7422 15.7051 13.7422Z" fill="white" stroke="#999999" stroke-width="1.5"/>
</g>
</svg>
