<svg width="17" height="17" viewBox="0 0 17 17" fill="none" xmlns="http://www.w3.org/2000/svg">
<path d="M6.49316 0.157227C8.05785 -0.157801 9.68039 0.00407554 11.1543 0.62207C12.6282 1.24018 13.8881 2.28702 14.7744 3.62988C15.6607 4.97278 16.1337 6.55192 16.1338 8.16699C16.1314 10.332 15.2808 12.4085 13.7686 13.9395C12.2562 15.4702 10.205 16.3316 8.06641 16.334C6.47125 16.3338 4.91131 15.8551 3.58496 14.958C2.25861 14.0608 1.22485 12.7849 0.614258 11.293C0.00376733 9.80091 -0.1568 8.15819 0.154297 6.57422C0.465519 4.99028 1.23438 3.53463 2.3623 2.39258C3.49038 1.25057 4.92851 0.472404 6.49316 0.157227ZM6.46387 7.09082H7.53223V11.9834H6.19531V12.5244H9.93555V11.9834L9.13477 11.9805V6.57129H6.46387V7.09082ZM8.06836 3.18848C7.47855 3.18872 7.00017 3.67242 7 4.26953C7.0002 4.86662 7.47856 5.35132 8.06836 5.35156C8.65832 5.35151 9.13652 4.86674 9.13672 4.26953C9.13655 3.6723 8.65834 3.18853 8.06836 3.18848Z" fill="#666666"/>
</svg>
